<svg width="78" height="60" viewBox="0 0 78 60" fill="none" xmlns="http://www.w3.org/2000/svg">
<g clip-path="url(#clip0_133_5160)">
<mask id="mask0_133_5160" style="mask-type:alpha" maskUnits="userSpaceOnUse" x="0" y="13" width="70" height="45">
<path d="M0 13.6108H69.579V57.4446H0V13.6108Z" fill="white"/>
</mask>
<g mask="url(#mask0_133_5160)">
<path fill-rule="evenodd" clip-rule="evenodd" d="M0.0590487 42.1785C2.33242 45.5994 5.13133 48.8746 8.41443 51.4245C10.058 52.7049 11.8412 53.8062 13.7593 54.5935C15.6804 55.3444 17.7471 55.8049 19.7882 56.1819C23.8911 56.9052 28.116 56.9594 32.2042 56.1986C36.3002 55.4753 40.2161 53.9518 43.8741 51.9825C47.5233 49.9719 50.9403 47.5411 53.9262 44.6379C56.9357 41.7592 59.5043 38.4427 61.8446 34.9834C64.117 31.4828 66.4337 27.9369 68.027 24.1155C68.3931 23.155 68.7385 22.1718 68.8468 21.1828C68.895 20.6907 68.8891 20.2006 68.7681 19.7538C68.6451 19.2971 68.3823 18.9714 68.0103 18.5512C67.4434 17.7983 66.4681 17.2826 65.6119 16.7157C64.7262 16.1685 63.8198 15.643 62.9075 15.1372L62.9036 15.1362L62.8612 15.1096C61.8604 14.4502 60.4855 14.2062 59.2081 14.2416C58.5704 14.2691 57.8775 14.3174 57.3057 14.5073C56.7039 14.7234 56.1402 15.0337 55.6357 15.4265C53.563 17.0257 51.9471 19.2401 50.5378 21.4741L50.5476 21.4544L43.3142 36.1044C40.4641 40.8204 36.2086 44.6467 31.1836 46.8551C28.6628 47.9449 25.9725 48.5908 23.2317 48.7644C20.5015 48.8946 17.7653 48.722 15.0732 48.2497C9.72827 47.2823 4.45522 45.2559 0.0590487 42.1805V42.1785ZM0 42.1126C4.57573 45.1036 9.7184 47.1204 15.1076 48.0371C17.7845 48.4849 20.5076 48.6355 23.216 48.4829C25.9184 48.2924 28.5675 47.6354 31.0458 46.5412C35.9764 44.3407 40.159 40.4867 42.9048 35.8908L50.0477 21.2093L50.0585 21.1896C51.4954 18.8887 53.0877 16.6547 55.2745 14.9413C55.8292 14.5044 56.4506 14.1595 57.1148 13.9198C57.8244 13.6875 58.4907 13.6521 59.1914 13.6137C60.578 13.5842 61.9952 13.7741 63.2618 14.5929L63.2175 14.5644C64.1456 15.0692 65.0614 15.5962 65.9642 16.1449C66.8431 16.7295 67.8105 17.195 68.5437 18.1132C68.8694 18.4685 69.2936 18.9842 69.4393 19.557C69.5977 20.1278 69.5997 20.7025 69.5505 21.2536C69.4324 22.3588 69.0781 23.3813 68.7071 24.3802C67.0862 28.3375 64.7951 31.8863 62.5296 35.4391C60.1972 38.9505 57.6118 42.3409 54.5373 45.2697C51.4954 48.229 48.0075 50.712 44.2993 52.7571C36.9005 56.9239 27.9969 58.4543 19.6799 56.7724C17.6024 56.3571 15.5524 55.8729 13.5645 55.0668C11.604 54.2303 9.79913 53.0789 8.15167 51.7542C4.8834 49.0503 2.12304 45.7858 0 42.1135" fill="#231F20"/>
</g>
<mask id="mask1_133_5160" style="mask-type:alpha" maskUnits="userSpaceOnUse" x="62" y="0" width="15" height="15">
<path d="M62.5345 0H76.9483V14.7917H62.5345V0Z" fill="white"/>
</mask>
<g mask="url(#mask1_133_5160)">
<path fill-rule="evenodd" clip-rule="evenodd" d="M62.5444 14.7199C63.811 13.0813 65.0776 11.4693 66.1641 9.74701C67.2899 8.07495 68.1668 6.23066 69.2119 4.41688C69.7257 3.51344 70.2453 2.61196 70.8673 1.75773C71.1783 1.33258 71.507 0.913331 71.9282 0.550182C72.3356 0.156524 72.9753 -0.0383367 73.5117 0.00398148C74.6336 0.0335058 75.6551 0.712565 76.1984 1.62782C76.7407 2.55488 76.9286 3.61776 76.9483 4.64914C76.9487 4.65499 76.9479 4.66086 76.946 4.66639C76.9441 4.67193 76.941 4.67701 76.9371 4.68133C76.9331 4.68566 76.9283 4.68914 76.923 4.69155C76.9176 4.69397 76.9119 4.69528 76.906 4.6954C76.8947 4.69542 76.8839 4.69116 76.8757 4.68349C76.8674 4.67581 76.8625 4.66529 76.8617 4.65406C76.783 3.63351 76.532 2.60803 75.976 1.77347C75.4199 0.94876 74.4722 0.415354 73.5077 0.446846C72.5 0.37402 71.9154 1.26762 71.3377 2.08742C70.7797 2.92886 70.3043 3.83919 69.8359 4.75149C68.9039 6.55543 68.1756 8.55029 66.8953 10.2489C65.6415 11.9259 64.245 13.4907 62.6064 14.7839C62.6017 14.7873 62.5963 14.7898 62.5906 14.7911C62.585 14.7925 62.5791 14.7927 62.5733 14.7918C62.5676 14.7909 62.562 14.7889 62.5571 14.7858C62.5521 14.7828 62.5478 14.7787 62.5444 14.774C62.5306 14.7583 62.5326 14.7356 62.5444 14.7199Z" fill="#231F20"/>
</g>
<path fill-rule="evenodd" clip-rule="evenodd" d="M67.534 17.697C67.5497 16.147 67.778 14.6304 68.0054 13.1138C68.2563 11.6012 68.6785 10.122 69.0801 8.64287C69.472 7.15887 69.9135 5.68839 70.4037 4.2339C70.6596 3.50957 70.9352 2.78819 71.2609 2.08847C71.6172 1.43303 71.8937 0.605362 72.6742 0.281578C72.6978 0.274689 72.7224 0.283547 72.7312 0.306182C72.7381 0.325865 72.7312 0.350468 72.7096 0.359326L72.6899 0.370151C72.0404 0.692951 71.7904 1.52652 71.505 2.19279C71.2393 2.90137 71.0228 3.63161 70.8259 4.36676C70.4244 5.83477 70.0719 7.31575 69.769 8.80722C69.4609 10.3012 69.2365 11.8098 68.8734 13.291C68.4886 14.7682 68.1382 16.2533 67.6206 17.7108C67.6188 17.7165 67.6159 17.7217 67.612 17.7263C67.6082 17.7308 67.6034 17.7345 67.5981 17.7372C67.5928 17.7399 67.587 17.7414 67.581 17.7418C67.5751 17.7421 67.5691 17.7413 67.5635 17.7393C67.5458 17.7344 67.534 17.7147 67.534 17.697ZM48.8825 32.8036C49.9473 29.7941 51.2228 26.8564 52.7659 24.0388C53.5483 22.6374 54.3543 21.2242 55.4477 20.0009C56.5529 18.8603 57.9208 17.6222 59.6195 17.5582C59.6441 17.5563 59.6638 17.5759 59.6657 17.6006C59.6657 17.6202 59.649 17.638 59.6313 17.6448C58.1383 18.1979 57.0922 19.374 56.1208 20.5756C55.1731 21.8058 54.2313 23.0645 53.378 24.398C51.7247 27.0926 50.2622 29.9289 48.9642 32.8351C48.9622 32.8406 48.9591 32.8457 48.9552 32.85C48.9512 32.8543 48.9464 32.8577 48.9411 32.8601C48.9357 32.8625 48.93 32.8638 48.9241 32.8639C48.9183 32.864 48.9125 32.8629 48.9071 32.8607C48.8966 32.8559 48.8883 32.8475 48.8838 32.8369C48.8792 32.8264 48.8787 32.8145 48.8825 32.8036Z" fill="#231F20"/>
</g>
<defs>
<clipPath id="clip0_133_5160">
<rect width="77.4194" height="60" fill="white"/>
</clipPath>
</defs>
</svg>
