<svg width="78" height="60" viewBox="0 0 78 60" fill="none" xmlns="http://www.w3.org/2000/svg">
<path fill-rule="evenodd" clip-rule="evenodd" d="M44.5229 42.4449L31.8135 24.9675L45.2777 41.8745C45.4325 42.0667 45.3913 42.3544 45.1851 42.5167C44.9798 42.6781 44.6886 42.6524 44.5347 42.4612C44.5302 42.4562 44.5263 42.4507 44.5229 42.4449Z" fill="#010202"/>
<path d="M44.6071 41.7542C45.3106 42.6525 45.9585 50.5407 45.9585 50.5407C45.9585 50.5407 50.57 45.3252 51.6101 38.0116C52.6486 30.698 51.2315 29.7203 50.0012 26.0059C48.7709 22.2915 43.5804 17.5029 40.9246 16.1879C39.0093 15.2401 32.8763 13.0849 29.554 11.9398C28.3574 11.5299 27.0085 12.2062 26.5835 13.4221C24.611 19.0732 24.2365 25.1179 25.8632 30.6827C26.8284 33.9821 28.4878 37.0988 31.3263 38.6256C31.3263 38.6256 37.9372 41.9216 42.3392 41.0882C46.7394 40.2548 45.9299 48.6536 45.9299 48.6536" stroke="#010202" stroke-width="0.5" stroke-linecap="round" stroke-linejoin="round"/>
<path fill-rule="evenodd" clip-rule="evenodd" d="M39.6354 57.7987L36.2575 58.3896L33.117 56.9961L29.6987 56.7493L26.9781 54.6334L23.7164 53.5634L21.5748 50.8481L18.6606 49.0182L17.2208 45.8622L14.8225 43.3774L14.1694 39.9618L12.4275 36.9672L12.5983 33.4936L11.6129 30.1626L12.5975 26.8316L12.4275 23.3579L14.1694 20.3625L14.8225 16.9486L17.2208 14.4638L18.6598 11.307L21.5748 9.47625L23.7164 6.76088L26.9781 5.69181L29.6987 3.57587L33.117 3.3291L36.2575 1.93555L39.6354 2.52644L43.0132 1.93555L46.1537 3.3291L49.572 3.57587L52.2926 5.69181L55.5543 6.76173L57.6959 9.4771L60.6101 11.307L62.0499 14.463L64.4483 16.9478L65.1013 20.3633L66.8432 23.3579L66.6724 26.8316L67.6578 30.1626L66.6732 33.4936L66.8432 36.9672L65.1013 39.9627L64.4483 43.3765L62.0499 45.8614L60.6109 49.0182L57.6959 50.8489L55.5543 53.5643L52.2926 54.6334L49.572 56.7493L46.1537 56.9961L43.0132 58.3896L39.6354 57.7987Z" stroke="black" stroke-width="0.5"/>
</svg>
