<svg width="78" height="60" viewBox="0 0 78 60" fill="none" xmlns="http://www.w3.org/2000/svg">
<path fill-rule="evenodd" clip-rule="evenodd" d="M47.2153 46.8887L58.2018 20.0229L48.3337 47.3199C48.307 47.3939 48.2659 47.4619 48.2129 47.5201C48.1598 47.5782 48.0959 47.6253 48.0246 47.6587C47.9534 47.6921 47.8763 47.7112 47.7977 47.7148C47.7191 47.7184 47.6405 47.7065 47.5665 47.6797C47.4925 47.653 47.4245 47.6119 47.3664 47.5589C47.3082 47.5059 47.2611 47.4419 47.2277 47.3707C47.1943 47.2994 47.1753 47.2223 47.1716 47.1437C47.168 47.0651 47.18 46.9865 47.2067 46.9125L47.2153 46.8887Z" fill="#010202"/>
<path d="M33.1037 47.9587C33.1037 47.9587 23.5116 45.5856 20.0934 41.6925C16.6771 37.7974 11.1667 32.2908 11.6417 9.02403C11.6417 9.02403 15.2512 5.32123 34.4335 15.6719M48.0034 46.4709C47.4323 47.8958 49.2466 58.2142 49.2466 58.2142C49.2466 58.2142 41.84 53.372 38.1372 44.4453C34.4325 35.5186 35.8584 33.7148 36.143 28.4918C36.4267 23.2679 41.2356 15.1179 44.0722 12.3956C46.1159 10.4328 52.9579 5.27553 56.6722 2.50843C56.9884 2.27328 57.3493 2.10505 57.7327 2.01401C58.1161 1.92296 58.5141 1.91101 58.9023 1.97889C59.2905 2.04677 59.6608 2.19305 59.9906 2.4088C60.3204 2.62455 60.6028 2.90525 60.8205 3.23376C65.1248 9.66845 67.5864 17.2387 67.4255 24.9794C67.3303 29.5703 66.3166 34.1993 63.3267 37.2615C63.3267 37.2615 56.2752 44.0655 50.5764 44.7299C44.8794 45.3943 48.6593 55.7945 48.6593 55.7945L48.0034 46.4709Z" stroke="#010202" stroke-width="0.5" stroke-linecap="round" stroke-linejoin="round"/>
<path fill-rule="evenodd" clip-rule="evenodd" d="M23.0547 19.3471C24.4643 20.744 25.811 22.2031 27.0907 23.72C27.7322 24.4786 28.4128 25.2173 28.9192 26.0902C29.3837 26.9659 29.932 27.8949 29.9168 28.961C29.9167 28.9706 29.9133 28.9798 29.9074 28.9873C29.9014 28.9947 29.8931 29 29.8838 29.0021C29.8745 29.0043 29.8647 29.0034 29.856 28.9994C29.8474 28.9954 29.8403 28.9886 29.8359 28.9801L29.833 28.9725C29.3837 28.0958 28.7907 27.3447 28.2053 26.5642C27.6256 25.7837 27.1116 24.9479 26.55 24.1398C25.3957 22.5371 24.2091 20.9579 22.9909 19.4032C22.9874 19.3988 22.9848 19.3938 22.9832 19.3883C22.9817 19.3829 22.9813 19.3772 22.982 19.3716C22.9827 19.366 22.9845 19.3606 22.9874 19.3557C22.9902 19.3509 22.994 19.3466 22.9986 19.3433C23.0067 19.3368 23.017 19.3336 23.0274 19.3343C23.0378 19.335 23.0475 19.3396 23.0547 19.3471Z" fill="#010202"/>
</svg>
